<svg width="22" height="22" viewBox="0 0 22 22" fill="none" xmlns="http://www.w3.org/2000/svg">
<g clip-path="url(#clip0_104_725)">
<path d="M14.8671 11.8589H7.13281C6.65801 11.8589 6.27344 11.4743 6.27344 10.9995C6.27344 10.5247 6.65801 10.1401 7.13281 10.1401H14.8671C15.3419 10.1401 15.7265 10.5247 15.7265 10.9995C15.7265 11.4743 15.3419 11.8589 14.8671 11.8589Z" fill="#828282"/>
<path d="M14.8671 8.42188H7.13281C6.65801 8.42188 6.27344 8.03731 6.27344 7.5625C6.27344 7.0877 6.65801 6.70313 7.13281 6.70313H14.8671C15.3419 6.70313 15.7265 7.0877 15.7265 7.5625C15.7265 8.03731 15.3419 8.42188 14.8671 8.42188Z" fill="#828282"/>
<path d="M14.8671 15.2969H7.13281C6.65801 15.2969 6.27344 14.9123 6.27344 14.4375C6.27344 13.9627 6.65801 13.5781 7.13281 13.5781H14.8671C15.3419 13.5781 15.7265 13.9627 15.7265 14.4375C15.7265 14.9123 15.3419 15.2969 14.8671 15.2969Z" fill="#828282"/>
<mask id="mask0_104_725" style="mask-type:luminance" maskUnits="userSpaceOnUse" x="-4" y="-4" width="30" height="30">
<path d="M25.6668 25.6665H-3.6665V-3.66683H25.6668V25.6665Z" fill="white"/>
</mask>
<g mask="url(#mask0_104_725)">
<path d="M10.9999 22C9.51532 22 8.07459 21.7091 6.71807 21.135C5.40796 20.5807 4.23191 19.788 3.22172 18.7782C2.21196 17.7685 1.41876 16.592 0.864467 15.2819C0.290837 13.9254 -0.000488281 12.4846 -0.000488281 11.0001C-0.000488281 9.51549 0.290408 8.07476 0.864467 6.71824C1.41876 5.40813 2.21153 4.23208 3.22172 3.22189C4.23148 2.21213 5.40796 1.41893 6.71807 0.865067C8.07459 0.291435 9.51532 0.000108719 10.9999 0.000108719C12.4845 0.000108719 13.9252 0.291006 15.2817 0.865067C16.5918 1.41893 17.7679 2.21213 18.7781 3.22189C19.7878 4.23165 20.581 5.40813 21.1349 6.71824C21.7085 8.07476 21.9998 9.51549 21.9998 11.0001C21.9998 13.1713 21.3553 15.2827 20.1363 17.1067C19.8725 17.5012 19.3388 17.6073 18.9443 17.3435C18.5499 17.0797 18.4438 16.546 18.7076 16.1516C19.7367 14.6111 20.2811 12.8301 20.2811 11.0001C20.2811 5.8825 16.1174 1.71885 10.9999 1.71885C5.88233 1.71885 1.71868 5.8825 1.71868 11.0001C1.71868 16.1176 5.88233 20.2813 10.9999 20.2813C12.6976 20.2813 14.3574 19.8189 15.8012 18.9445C16.2072 18.6987 16.7358 18.8285 16.9815 19.2341C17.2273 19.6402 17.0976 20.1687 16.6919 20.4145C14.9796 21.4517 13.0112 22 10.9999 22Z" fill="#828282"/>
</g>
</g>
<defs>
<clipPath id="clip0_104_725">
<rect width="22" height="22" fill="white"/>
</clipPath>
</defs>
</svg>
