<svg width="24" height="24" viewBox="0 0 24 24" fill="none" xmlns="http://www.w3.org/2000/svg">
<path d="M23.3139 3.28123C22.9609 2.92779 22.3881 2.92686 22.0347 3.27982L11.1836 14.1023L7.26858 9.85029C6.93014 9.48326 6.35827 9.45936 5.9903 9.79732C5.6228 10.1358 5.59936 10.7081 5.93733 11.0756L10.4903 16.02C10.6572 16.2014 10.8906 16.3064 11.1362 16.3115C11.1428 16.312 11.1494 16.312 11.1555 16.312C11.3945 16.312 11.6247 16.2169 11.7939 16.0481L23.312 4.56045C23.6659 4.20748 23.6669 3.63467 23.3139 3.28123Z" fill="#018AFE"/>
<path d="M23.0953 11.0953C22.5956 11.0953 22.1906 11.5003 22.1906 12C22.1906 17.6194 17.6194 22.1911 11.9995 22.1911C6.38016 22.1911 1.80844 17.6198 1.80844 12C1.80844 6.38063 6.38016 1.80891 11.9995 1.80891C12.4992 1.80891 12.9042 1.40391 12.9042 0.904219C12.9047 0.405 12.4997 0 12 0C5.38312 0 0 5.38312 0 12C0 18.6164 5.38312 24 12 24C18.6164 24 24 18.6164 24 12C24 11.5003 23.595 11.0953 23.0953 11.0953Z" fill="#018AFE"/>
</svg>
